<svg width="254" height="349" viewBox="0 0 254 349" fill="none" xmlns="http://www.w3.org/2000/svg">
<path d="M15.1394 215.53C17.8483 215.259 18.8091 210.779 19.3794 208.612C20.1447 205.704 19.8308 202.452 20.4952 199.462C21.3832 195.466 22.7411 192.272 24.512 188.553C26.4572 184.468 27.8588 179.621 30.5125 176.031C32.4397 173.424 34.0975 169.204 34.8765 166.088C35.7852 162.453 38.16 158.712 39.6868 155.277C41.2287 151.808 41.595 147.988 43.2573 144.566C44.8318 141.324 46.9297 138.215 49.5057 135.639C55.8955 129.25 64.781 126.713 73.6067 126.713C81.0259 126.713 90.1797 124.449 95.2282 118.679C97.3095 116.301 97.653 111.857 98.402 108.86C99.2907 105.306 101.427 102.821 103.064 99.711C105.27 95.5183 106.297 90.7243 107.08 86.024C107.93 80.9256 109.196 75.6557 109.709 70.5269C109.978 67.8299 110.547 65.0563 111.345 62.4437C111.951 60.4605 113.662 56.8295 115.412 55.6497C119.2 53.0946 123.327 52.5617 127.71 51.8313C131.634 51.1773 136.089 51.7321 140.058 51.7321C145.925 51.7321 152.034 51.2265 157.861 51.9304C162.892 52.5382 167.712 54.392 171.325 58.0053C175.18 61.8599 177.034 67.4372 179.383 72.2626C183.032 79.7579 183.494 90.3624 179.805 97.9257C176.902 103.877 172.108 109.039 168.647 114.663C166.065 118.858 166.887 123.877 166.887 128.647C166.887 130.666 168.674 130.913 170.16 132.069C172.33 133.757 174.253 135.626 176.656 136.978C181.995 139.981 187.154 145.178 187.764 151.459C188.119 155.109 187.637 161.526 192.327 161.526C197.114 161.526 202.121 159.042 206.51 157.162C209.402 155.922 211.969 154.27 214.642 152.624C216.27 151.623 217.771 150.34 219.75 151.012C223.136 152.162 225.559 155.741 226.941 158.873C228.658 162.765 231.113 166.234 233.04 170.006C235.69 175.19 235.787 178.004 232.073 182.701C230.372 184.852 228.044 187.175 227.387 189.842C226.77 192.346 226.693 194.676 226.693 197.231C226.693 199.484 228.102 199.898 230.115 200.801C233.747 202.431 236.314 203.479 240.306 203.479C244.212 203.479 247.864 203.49 251.687 204.372" stroke="white" stroke-linecap="round"/>
<path d="M14.6931 215.976C13.2111 215.976 12.3872 217.332 11.0978 217.761C10.5061 217.959 10.0734 218.337 9.56051 218.679C8.70327 219.25 7.70192 219.301 6.90741 219.844C4.23755 221.671 1.03246 224.524 0.857359 228.027C0.649041 232.193 0.305909 238.55 2.7418 242.11C3.45745 243.156 3.7865 244.437 4.52706 245.433C5.87055 247.24 8.2785 248.401 9.98203 249.846C11.8665 251.445 14.476 252.058 16.6272 253.268C18.2351 254.173 19.7352 255.251 21.3631 256.12C24.3067 257.69 27.6196 258.795 30.7109 260.062C33.1637 261.067 36.615 261.902 38.5462 263.732C40.7019 265.774 44.1885 267.476 46.927 268.641C49.8752 269.896 52.5024 271.897 55.531 272.906C57.1659 273.451 58.5206 274.553 60.0437 275.336C62.4342 276.565 65.0008 276.811 67.3584 278.163C72.5699 281.151 78.4972 283.254 83.9464 285.775C97.4007 292 111.796 295.996 125.429 301.867C130.041 303.853 134.565 305.995 139.215 307.917C142.149 309.13 144.543 311.05 147.373 312.355C148.804 313.016 146.561 316.027 145.959 316.595C143.898 318.542 139.48 319.521 136.736 319.521C132.256 319.521 128.281 319.544 124.04 317.885C122.726 317.371 116.171 315.995 116.949 313.273C117.892 309.973 124.079 310.595 126.322 310.595C137.281 310.595 147.647 310.85 158.109 314.562C161.831 315.883 161.745 321.964 158.754 324.208C155.303 326.796 150.718 327.29 146.555 327.481C141.686 327.704 136.179 328.14 131.33 327.357C129.644 327.084 127.694 326.793 126.272 325.77C122.028 322.714 132.744 321.108 134.157 320.984C138.977 320.561 148.61 319.525 150.72 325.125C152.096 328.777 152.531 334.479 150.72 338.019C149.535 340.334 147.005 342.068 144.521 342.68C142.181 343.257 139.728 343.394 137.331 343.523C136.335 343.577 133.75 344.061 132.719 343.523C131.4 342.835 133.88 339.405 134.355 339.01C136.741 337.031 140.592 336.227 143.629 336.531C148.122 336.98 147.288 340.884 147.249 344.317C147.228 346.155 147.204 347.639 145.067 347.639C144.944 347.639 143.455 347.639 144.125 347.639" stroke="white" stroke-linecap="round"/>
<path d="M250.794 204.818C254.102 206.375 253.066 211.844 252.579 214.885C251.844 219.48 249.632 224.924 246.777 228.572C241.93 234.765 235.968 241.035 229.916 246.028C222.383 252.243 214.382 258.706 206.014 263.682C197.194 268.927 187.543 272.4 178.739 277.568C170.769 282.246 162.018 285.03 154.415 290.213C151.013 292.532 145.463 294.732 145.463 299.784C145.463 301.44 144.495 308.19 146.356 308.81" stroke="white" stroke-linecap="round"/>
<path d="M103.51 59.3194C102.409 56.8726 100.117 54.6859 98.3027 52.823C93.2638 47.6479 87.7739 42.8892 82.3346 38.1442C77.2914 33.7449 72.2097 28.8459 66.4656 25.3994" stroke="white" stroke-linecap="round"/>
<path d="M126.718 43.6983C120.573 30.2912 116.236 15.5489 112.436 1.29834" stroke="white" stroke-linecap="round"/>
<path d="M157.514 37.8962C165.851 25.758 176.173 15.6665 186.524 5.31519" stroke="white" stroke-linecap="round"/>
<path d="M188.31 56.6415C189.73 55.221 191.774 54.167 193.442 53.1701C201.339 48.4529 209.521 44.4814 218.064 41.07C224.068 38.6727 230.284 36.7702 236.066 33.8794" stroke="white" stroke-linecap="round"/>
</svg>
